<svg id="visual" viewBox="0 0 900 600" width="900" height="600" xmlns="http://www.w3.org/2000/svg" xmlns:xlink="http://www.w3.org/1999/xlink" version="1.1"><rect x="0" y="0" width="900" height="600" fill="#F2F2F2"></rect><g transform="translate(455.5037124126003 299.3593338771859)"><path d="M135.7 -180.6C183.3 -152.3 234.3 -122.5 249.7 -80C265 -37.5 244.7 17.7 221.2 66.2C197.6 114.7 170.8 156.4 133.4 188.1C96 219.8 48 241.4 1.4 239.5C-45.3 237.6 -90.5 212.3 -136.3 183.3C-182.1 154.4 -228.5 121.8 -250.6 76.2C-272.6 30.5 -270.4 -28.3 -248.2 -75.7C-226 -123.1 -183.8 -159 -139.1 -188.3C-94.4 -217.6 -47.2 -240.3 -1.6 -238.2C44.1 -236 88.2 -209 135.7 -180.6" fill="#222831"></path></g></svg>