<svg id="visual" viewBox="0 0 900 600" width="900" height="600" xmlns="http://www.w3.org/2000/svg" xmlns:xlink="http://www.w3.org/1999/xlink" version="1.1"><rect x="0" y="0" width="900" height="600" fill="#F2F2F2"></rect><g transform="translate(468.3213411744043 284.46446649422535)"><path d="M136.1 -184.3C174.6 -159.3 202.9 -117.2 216.5 -71.3C230.2 -25.3 229.2 24.4 216.7 72.8C204.3 121.2 180.3 168.2 142.3 204C104.2 239.8 52.1 264.4 2.4 261C-47.2 257.7 -94.4 226.3 -136 191.6C-177.5 157 -213.3 119 -236.5 71.3C-259.6 23.6 -270.1 -33.8 -258 -87.7C-245.8 -141.7 -211.1 -192.2 -164.3 -214.5C-117.6 -236.8 -58.8 -230.9 -5 -224C48.8 -217.2 97.6 -209.3 136.1 -184.3" fill="#222831"></path></g></svg>