<svg id="visual" viewBox="0 0 2000 1500" width="2000" height="1500" xmlns="http://www.w3.org/2000/svg" xmlns:xlink="http://www.w3.org/1999/xlink" version="1.1"><rect x="0" y="0" width="2000" height="1500" fill="#F2F2F2"></rect><path d="M0 958L47.7 985C95.3 1012 190.7 1066 285.8 1065.7C381 1065.3 476 1010.7 571.2 999.5C666.3 988.3 761.7 1020.7 857 1023.8C952.3 1027 1047.7 1001 1143 1007.7C1238.3 1014.3 1333.7 1053.7 1428.8 1047.8C1524 1042 1619 991 1714.2 968C1809.3 945 1904.7 950 1952.3 952.5L2000 955L2000 1501L1952.3 1501C1904.7 1501 1809.3 1501 1714.2 1501C1619 1501 1524 1501 1428.8 1501C1333.7 1501 1238.3 1501 1143 1501C1047.7 1501 952.3 1501 857 1501C761.7 1501 666.3 1501 571.2 1501C476 1501 381 1501 285.8 1501C190.7 1501 95.3 1501 47.7 1501L0 1501Z" fill="#ea8a8a"></path><path d="M0 1114L47.7 1110C95.3 1106 190.7 1098 285.8 1092.2C381 1086.3 476 1082.7 571.2 1101.3C666.3 1120 761.7 1161 857 1161.3C952.3 1161.7 1047.7 1121.3 1143 1096.3C1238.3 1071.3 1333.7 1061.7 1428.8 1067C1524 1072.3 1619 1092.7 1714.2 1109.8C1809.3 1127 1904.7 1141 1952.3 1148L2000 1155L2000 1501L1952.3 1501C1904.7 1501 1809.3 1501 1714.2 1501C1619 1501 1524 1501 1428.8 1501C1333.7 1501 1238.3 1501 1143 1501C1047.7 1501 952.3 1501 857 1501C761.7 1501 666.3 1501 571.2 1501C476 1501 381 1501 285.8 1501C190.7 1501 95.3 1501 47.7 1501L0 1501Z" fill="#ec9d9d"></path><path d="M0 1261L47.7 1257.2C95.3 1253.3 190.7 1245.7 285.8 1224C381 1202.3 476 1166.7 571.2 1151C666.3 1135.3 761.7 1139.7 857 1150.8C952.3 1162 1047.7 1180 1143 1193.2C1238.3 1206.3 1333.7 1214.7 1428.8 1217.8C1524 1221 1619 1219 1714.2 1224.3C1809.3 1229.7 1904.7 1242.3 1952.3 1248.7L2000 1255L2000 1501L1952.3 1501C1904.7 1501 1809.3 1501 1714.2 1501C1619 1501 1524 1501 1428.8 1501C1333.7 1501 1238.3 1501 1143 1501C1047.7 1501 952.3 1501 857 1501C761.7 1501 666.3 1501 571.2 1501C476 1501 381 1501 285.8 1501C190.7 1501 95.3 1501 47.7 1501L0 1501Z" fill="#edb0b0"></path><path d="M0 1343L47.7 1332.8C95.3 1322.7 190.7 1302.3 285.8 1294.8C381 1287.3 476 1292.7 571.2 1296C666.3 1299.3 761.7 1300.7 857 1303.8C952.3 1307 1047.7 1312 1143 1308C1238.3 1304 1333.7 1291 1428.8 1277C1524 1263 1619 1248 1714.2 1241.5C1809.3 1235 1904.7 1237 1952.3 1238L2000 1239L2000 1501L1952.3 1501C1904.7 1501 1809.3 1501 1714.2 1501C1619 1501 1524 1501 1428.8 1501C1333.7 1501 1238.3 1501 1143 1501C1047.7 1501 952.3 1501 857 1501C761.7 1501 666.3 1501 571.2 1501C476 1501 381 1501 285.8 1501C190.7 1501 95.3 1501 47.7 1501L0 1501Z" fill="#edc3c3"></path><path d="M0 1414L47.7 1415.2C95.3 1416.3 190.7 1418.7 285.8 1404.3C381 1390 476 1359 571.2 1342C666.3 1325 761.7 1322 857 1336.8C952.3 1351.7 1047.7 1384.3 1143 1400C1238.3 1415.7 1333.7 1414.3 1428.8 1405C1524 1395.7 1619 1378.3 1714.2 1380.3C1809.3 1382.3 1904.7 1403.7 1952.3 1414.3L2000 1425L2000 1501L1952.3 1501C1904.7 1501 1809.3 1501 1714.2 1501C1619 1501 1524 1501 1428.8 1501C1333.7 1501 1238.3 1501 1143 1501C1047.7 1501 952.3 1501 857 1501C761.7 1501 666.3 1501 571.2 1501C476 1501 381 1501 285.8 1501C190.7 1501 95.3 1501 47.7 1501L0 1501Z" fill="#ebd5d5"></path></svg>