<svg width="593" height="662" viewBox="0 0 593 662" fill="none" xmlns="http://www.w3.org/2000/svg">
<rect x="430.902" y="610.08" width="352.35" height="583.2" rx="176.175" transform="rotate(-176.227 430.902 610.08)" fill="#EA8A8A"/>
<rect x="430.902" y="610.08" width="352.35" height="583.2" rx="176.175" transform="rotate(-176.227 430.902 610.08)" fill="#EA8A8A"/>
<mask id="mask0_19_112" style="mask-type:alpha" maskUnits="userSpaceOnUse" x="56" y="295" width="415" height="360">
<rect x="448.234" y="654.905" width="392.445" height="334.732" transform="rotate(-176.227 448.234 654.905)" fill="#D9D9D9"/>
</mask>
<g mask="url(#mask0_19_112)">
<path d="M422.734 427.656C417.071 513.528 342.867 578.551 256.994 572.888V572.888C171.122 567.225 106.099 493.02 111.762 407.148L126.193 188.316C131.857 102.443 206.061 37.4204 291.933 43.0835V43.0835C377.806 48.7465 442.829 122.951 437.165 208.823L422.734 427.656Z" fill="#EA8A8A"/>
<path d="M422.734 427.656C417.071 513.528 342.867 578.551 256.994 572.888V572.888C171.122 567.225 106.099 493.02 111.762 407.148L126.193 188.316C131.857 102.443 206.061 37.4204 291.933 43.0835V43.0835C377.806 48.7465 442.829 122.951 437.165 208.823L422.734 427.656Z" fill="#EBD5D5"/>
</g>
<mask id="mask1_19_112" style="mask-type:alpha" maskUnits="userSpaceOnUse" x="223" y="201" width="110" height="95">
<rect x="326.45" y="295.879" width="103.275" height="88.0875" transform="rotate(-176.227 326.45 295.879)" fill="#D9D9D9"/>
</mask>
<g mask="url(#mask1_19_112)">
<path d="M329.674 217.556C328.074 241.828 307.1 260.207 282.828 258.607L271.216 257.841C246.944 256.24 228.565 235.266 230.166 210.994L232.505 175.53C234.106 151.258 255.079 132.879 279.351 134.48L290.963 135.245C315.235 136.846 333.614 157.82 332.013 182.092L329.674 217.556Z" fill="#EA8A8A"/>
<path d="M329.674 217.556C328.074 241.828 307.1 260.207 282.828 258.607L271.216 257.841C246.944 256.24 228.565 235.266 230.166 210.994L232.505 175.53C234.106 151.258 255.079 132.879 279.351 134.48L290.963 135.245C315.235 136.846 333.614 157.82 332.013 182.092L329.674 217.556Z" fill="#EBD5D5"/>
</g>
<path d="M254.901 164.978C243.692 173.703 239.723 150.115 219.912 148.852C200.101 147.589 195.663 171.148 183.159 160.404C170.655 149.659 201.39 127.38 221.201 128.643C241.012 129.906 266.11 156.253 254.901 164.978Z" fill="#EBD5D5"/>
<path d="M381.207 173.031C369.998 181.756 366.029 158.168 346.218 156.905C326.407 155.642 321.969 179.201 309.465 168.457C296.961 157.712 327.696 135.433 347.507 136.696C367.318 137.959 392.416 164.306 381.207 173.031Z" fill="#EBD5D5"/>
<path d="M24.8009 336.08C12.0533 370.591 11.5192 401.179 33.9864 414.786C52.4242 425.953 68.2348 374.866 84.3851 333.978C100.535 293.089 91.395 287.193 74.2119 281.119C44.4461 270.598 38.598 298.728 24.8009 336.08Z" fill="#D9D9D9"/>
<rect x="365.767" y="331.641" width="17.2125" height="54.675" transform="rotate(3.64818 365.767 331.641)" fill="#EA8A8A"/>
<rect x="345.26" y="366.857" width="17.2125" height="54.675" transform="rotate(-86.3518 345.26 366.857)" fill="#EA8A8A"/>
<path d="M81.642 311.804C68.6766 308.338 46.469 300.937 41.2664 300.606C49.1449 288.426 54.9398 279.26 73.2447 284.383C87.1351 291.458 89.0578 290.97 88.5423 299.054C87.9797 307.877 87.1288 313.27 81.642 311.804Z" fill="#EA8A8A"/>
<path d="M535.907 313.26C561.902 287.226 575.161 259.656 560.429 237.909C548.339 220.063 512.639 259.88 480.889 290.288C449.139 320.696 454.982 329.87 468.059 342.565C490.711 364.555 507.772 341.438 535.907 313.26Z" fill="#D9D9D9"/>
<path d="M474.122 311.581C484.455 320.144 501.543 336.143 506.132 338.617C493.887 346.394 484.794 352.302 470.3 340.003C460.634 327.773 458.683 327.414 462.527 320.284C466.723 312.502 469.749 307.957 474.122 311.581Z" fill="#EA8A8A"/>
</svg>
